{
    "asset" : {
        "generator" : "Khronos glTF Blender I/O v3.2.43",
        "version" : "2.0"
    },
    "scene" : 0,
    "scenes" : [
        {
            "name" : "Scene",
            "nodes" : [
                0,
                1,
                2,
                3,
                4,
                5
            ]
        }
    ],
    "nodes" : [
        {
            "mesh" : 0,
            "name" : "10778_Toilet_V2",
            "rotation" : [
                0,
                -0.0939955860376358,
                0,
                0.9955726265907288
            ],
            "scale" : [
                0.14784900844097137,
                0.14784900844097137,
                0.14784900844097137
            ],
            "translation" : [
                0.6295111179351807,
                3.50570011138916,
                -8.5586519241333
            ]
        },
        {
            "mesh" : 1,
            "name" : "Cylinder001",
            "rotation" : [
                0,
                -0.9091731309890747,
                0,
                0.4164184033870697
            ],
            "scale" : [
                0.0249027106910944,
                0.0249027106910944,
                0.0249027106910944
            ],
            "translation" : [
                4.311853885650635,
                0.6788287162780762,
                -6.374186038970947
            ]
        },
        {
            "mesh" : 2,
            "name" : "Box002",
            "scale" : [
                0.06003013625741005,
                0.06003013625741005,
                0.06003013625741005
            ],
            "translation" : [
                -30.65781593322754,
                85.34393310546875,
                0
            ]
        },
        {
            "mesh" : 3,
            "name" : "Plane.156_Plane.197",
            "rotation" : [
                0.4552910327911377,
                0.5410268902778625,
                -0.5410269498825073,
                0.4552909731864929
            ],
            "scale" : [
                1.5652027130126953,
                1.5652027130126953,
                1.5652027130126953
            ],
            "translation" : [
                -6.187308311462402,
                0.687293291091919,
                -11.593204498291016
            ]
        },
        {
            "mesh" : 4,
            "name" : "Lavatory pan N220122",
            "rotation" : [
                -0.6667301654815674,
                0.2355223000049591,
                0.23552225530147552,
                0.6667303442955017
            ],
            "scale" : [
                -0.005793348420411348,
                -0.005793348420411348,
                -0.005793348420411348
            ],
            "translation" : [
                -10.764435768127441,
                0.6565194129943848,
                -6.1907525062561035
            ]
        },
        {
            "mesh" : 5,
            "name" : "Cylinder",
            "scale" : [
                12.647700309753418,
                12.647700309753418,
                12.647700309753418
            ],
            "translation" : [
                -3.2704458236694336,
                12.915084838867188,
                -0.6278240084648132
            ]
        }
    ],
    "materials" : [
        {
            "doubleSided" : true,
            "name" : "_10778_Toilet_V201___Default",
            "pbrMetallicRoughness" : {
                "baseColorTexture" : {
                    "index" : 0
                },
                "metallicFactor" : 0,
                "roughnessFactor" : 0.7741681933403015
            }
        },
        {
            "doubleSided" : true,
            "name" : "Material",
            "pbrMetallicRoughness" : {
                "baseColorFactor" : [
                    0.800000011920929,
                    0.800000011920929,
                    0.800000011920929,
                    1
                ],
                "metallicFactor" : 0,
                "roughnessFactor" : 0.5
            }
        },
        {
            "doubleSided" : true,
            "name" : "Material #25",
            "pbrMetallicRoughness" : {
                "roughnessFactor" : 0.858578622341156
            }
        },
        {
            "doubleSided" : true,
            "name" : "Material.324",
            "pbrMetallicRoughness" : {
                "baseColorFactor" : [
                    0.6399999856948853,
                    0.6399999856948853,
                    0.6399999856948853,
                    1
                ],
                "metallicFactor" : 0,
                "roughnessFactor" : 0.690034806728363
            }
        },
        {
            "doubleSided" : true,
            "name" : "Plastic",
            "pbrMetallicRoughness" : {
                "baseColorFactor" : [
                    0.5881999731063843,
                    0.7020000219345093,
                    0.9136999845504761,
                    1
                ],
                "metallicFactor" : 0,
                "roughnessFactor" : 0.8999999761581421
            }
        },
        {
            "doubleSided" : true,
            "name" : "Chrome",
            "pbrMetallicRoughness" : {
                "baseColorFactor" : [
                    0.8156999945640564,
                    0.8313999772071838,
                    0.9254999756813049,
                    1
                ],
                "metallicFactor" : 0,
                "roughnessFactor" : 0.8999999761581421
            }
        },
        {
            "doubleSided" : true,
            "name" : "Ceramic",
            "pbrMetallicRoughness" : {
                "baseColorFactor" : [
                    0.9528999924659729,
                    0.9528999924659729,
                    0.9528999924659729,
                    1
                ],
                "metallicFactor" : 0,
                "roughnessFactor" : 0.7354248762130737
            }
        },
        {
            "doubleSided" : true,
            "name" : "Material.002",
            "pbrMetallicRoughness" : {
                "baseColorFactor" : [
                    0.4593614935874939,
                    0.7620598673820496,
                    0.8000000715255737,
                    1
                ],
                "metallicFactor" : 0,
                "roughnessFactor" : 0.5
            }
        }
    ],
    "meshes" : [
        {
            "name" : "10778_Toilet_V2",
            "primitives" : [
                {
                    "attributes" : {
                        "POSITION" : 0,
                        "NORMAL" : 1,
                        "TEXCOORD_0" : 2
                    },
                    "indices" : 3,
                    "material" : 0
                }
            ]
        },
        {
            "name" : "Mesh",
            "primitives" : [
                {
                    "attributes" : {
                        "POSITION" : 4,
                        "NORMAL" : 5,
                        "TEXCOORD_0" : 6
                    },
                    "indices" : 7,
                    "material" : 1
                }
            ]
        },
        {
            "name" : "Mesh.002",
            "primitives" : [
                {
                    "attributes" : {
                        "POSITION" : 8,
                        "NORMAL" : 9,
                        "TEXCOORD_0" : 10
                    },
                    "indices" : 11,
                    "material" : 2
                }
            ]
        },
        {
            "name" : "Plane.156_Plane.197",
            "primitives" : [
                {
                    "attributes" : {
                        "POSITION" : 12,
                        "NORMAL" : 13,
                        "TEXCOORD_0" : 14
                    },
                    "indices" : 15,
                    "material" : 3
                }
            ]
        },
        {
            "name" : "Lavatory pan N220122",
            "primitives" : [
                {
                    "attributes" : {
                        "POSITION" : 16,
                        "NORMAL" : 17,
                        "TEXCOORD_0" : 18
                    },
                    "indices" : 19,
                    "material" : 4
                },
                {
                    "attributes" : {
                        "POSITION" : 20,
                        "NORMAL" : 21,
                        "TEXCOORD_0" : 22
                    },
                    "indices" : 23,
                    "material" : 5
                },
                {
                    "attributes" : {
                        "POSITION" : 24,
                        "NORMAL" : 25,
                        "TEXCOORD_0" : 26
                    },
                    "indices" : 27,
                    "material" : 6
                }
            ]
        },
        {
            "name" : "Cylinder",
            "primitives" : [
                {
                    "attributes" : {
                        "POSITION" : 28,
                        "NORMAL" : 29,
                        "TEXCOORD_0" : 30
                    },
                    "indices" : 31,
                    "material" : 7
                }
            ]
        }
    ],
    "textures" : [
        {
            "sampler" : 0,
            "source" : 0
        }
    ],
    "images" : [
        {
            "bufferView" : 4,
            "mimeType" : "image/jpeg",
            "name" : "Toilet"
        }
    ],
    "accessors" : [
        {
            "bufferView" : 0,
            "componentType" : 5126,
            "count" : 27906,
            "max" : [
                2.162100076675415,
                14.161499977111816,
                9.54640007019043
            ],
            "min" : [
                -12.618800163269043,
                -19.925500869750977,
                -15.896699905395508
            ],
            "type" : "VEC3"
        },
        {
            "bufferView" : 1,
            "componentType" : 5126,
            "count" : 27906,
            "type" : "VEC3"
        },
        {
            "bufferView" : 2,
            "componentType" : 5126,
            "count" : 27906,
            "type" : "VEC2"
        },
        {
            "bufferView" : 3,
            "componentType" : 5123,
            "count" : 141888,
            "type" : "SCALAR"
        },
        {
            "bufferView" : 5,
            "componentType" : 5126,
            "count" : 7442,
            "max" : [
                51.20219039916992,
                152.48428344726562,
                31.856449127197266
            ],
            "min" : [
                -75.46394348144531,
                -1.1054378745711801e-08,
                -31.856447219848633
            ],
            "type" : "VEC3"
        },
        {
            "bufferView" : 6,
            "componentType" : 5126,
            "count" : 7442,
            "type" : "VEC3"
        },
        {
            "bufferView" : 7,
            "componentType" : 5126,
            "count" : 7442,
            "type" : "VEC2"
        },
        {
            "bufferView" : 8,
            "componentType" : 5123,
            "count" : 42288,
            "type" : "SCALAR"
        },
        {
            "bufferView" : 9,
            "componentType" : 5126,
            "count" : 1608,
            "max" : [
                11.487112045288086,
                2.330674409866333,
                24.612281799316406
            ],
            "min" : [
                -12.469054222106934,
                -6.45078182220459,
                -24.612281799316406
            ],
            "type" : "VEC3"
        },
        {
            "bufferView" : 10,
            "componentType" : 5126,
            "count" : 1608,
            "type" : "VEC3"
        },
        {
            "bufferView" : 11,
            "componentType" : 5126,
            "count" : 1608,
            "type" : "VEC2"
        },
        {
            "bufferView" : 12,
            "componentType" : 5123,
            "count" : 8064,
            "type" : "SCALAR"
        },
        {
            "bufferView" : 13,
            "componentType" : 5126,
            "count" : 6856,
            "max" : [
                -0.2971850037574768,
                0.8344969749450684,
                0.017420999705791473
            ],
            "min" : [
                -3.0740931034088135,
                -0.8092470169067383,
                -3.227008104324341
            ],
            "type" : "VEC3"
        },
        {
            "bufferView" : 14,
            "componentType" : 5126,
            "count" : 6856,
            "type" : "VEC3"
        },
        {
            "bufferView" : 15,
            "componentType" : 5126,
            "count" : 6856,
            "type" : "VEC2"
        },
        {
            "bufferView" : 16,
            "componentType" : 5123,
            "count" : 36318,
            "type" : "SCALAR"
        },
        {
            "bufferView" : 17,
            "componentType" : 5126,
            "count" : 977,
            "max" : [
                29.3125,
                -217.71429443359375,
                -836.8441162109375
            ],
            "min" : [
                -4.7322998046875,
                -251.75729370117188,
                -844.3134765625
            ],
            "type" : "VEC3"
        },
        {
            "bufferView" : 18,
            "componentType" : 5126,
            "count" : 977,
            "type" : "VEC3"
        },
        {
            "bufferView" : 19,
            "componentType" : 5126,
            "count" : 977,
            "type" : "VEC2"
        },
        {
            "bufferView" : 20,
            "componentType" : 5123,
            "count" : 5280,
            "type" : "SCALAR"
        },
        {
            "bufferView" : 21,
            "componentType" : 5126,
            "count" : 1042,
            "max" : [
                34.289798736572266,
                -212.73080444335938,
                -833.6956787109375
            ],
            "min" : [
                -9.517900466918945,
                -256.5386962890625,
                -840.610107421875
            ],
            "type" : "VEC3"
        },
        {
            "bufferView" : 22,
            "componentType" : 5126,
            "count" : 1042,
            "type" : "VEC3"
        },
        {
            "bufferView" : 23,
            "componentType" : 5126,
            "count" : 1042,
            "type" : "VEC2"
        },
        {
            "bufferView" : 24,
            "componentType" : 5123,
            "count" : 5424,
            "type" : "SCALAR"
        },
        {
            "bufferView" : 25,
            "componentType" : 5126,
            "count" : 19635,
            "max" : [
                188.2884063720703,
                314.1805114746094,
                -3.5920000076293945
            ],
            "min" : [
                -188.28829956054688,
                -314.1805114746094,
                -834.5955200195312
            ],
            "type" : "VEC3"
        },
        {
            "bufferView" : 26,
            "componentType" : 5126,
            "count" : 19635,
            "type" : "VEC3"
        },
        {
            "bufferView" : 27,
            "componentType" : 5126,
            "count" : 19635,
            "type" : "VEC2"
        },
        {
            "bufferView" : 28,
            "componentType" : 5123,
            "count" : 107760,
            "type" : "SCALAR"
        },
        {
            "bufferView" : 29,
            "componentType" : 5126,
            "count" : 230,
            "max" : [
                0.9848077297210693,
                0.11773020029067993,
                1.3039029836654663
            ],
            "min" : [
                -0.9848077297210693,
                -1,
                -1
            ],
            "type" : "VEC3"
        },
        {
            "bufferView" : 30,
            "componentType" : 5126,
            "count" : 230,
            "type" : "VEC3"
        },
        {
            "bufferView" : 31,
            "componentType" : 5126,
            "count" : 230,
            "type" : "VEC2"
        },
        {
            "bufferView" : 32,
            "componentType" : 5123,
            "count" : 405,
            "type" : "SCALAR"
        }
    ],
    "bufferViews" : [
        {
            "buffer" : 0,
            "byteLength" : 334872,
            "byteOffset" : 0
        },
        {
            "buffer" : 0,
            "byteLength" : 334872,
            "byteOffset" : 334872
        },
        {
            "buffer" : 0,
            "byteLength" : 223248,
            "byteOffset" : 669744
        },
        {
            "buffer" : 0,
            "byteLength" : 283776,
            "byteOffset" : 892992
        },
        {
            "buffer" : 0,
            "byteLength" : 328693,
            "byteOffset" : 1176768
        },
        {
            "buffer" : 0,
            "byteLength" : 89304,
            "byteOffset" : 1505464
        },
        {
            "buffer" : 0,
            "byteLength" : 89304,
            "byteOffset" : 1594768
        },
        {
            "buffer" : 0,
            "byteLength" : 59536,
            "byteOffset" : 1684072
        },
        {
            "buffer" : 0,
            "byteLength" : 84576,
            "byteOffset" : 1743608
        },
        {
            "buffer" : 0,
            "byteLength" : 19296,
            "byteOffset" : 1828184
        },
        {
            "buffer" : 0,
            "byteLength" : 19296,
            "byteOffset" : 1847480
        },
        {
            "buffer" : 0,
            "byteLength" : 12864,
            "byteOffset" : 1866776
        },
        {
            "buffer" : 0,
            "byteLength" : 16128,
            "byteOffset" : 1879640
        },
        {
            "buffer" : 0,
            "byteLength" : 82272,
            "byteOffset" : 1895768
        },
        {
            "buffer" : 0,
            "byteLength" : 82272,
            "byteOffset" : 1978040
        },
        {
            "buffer" : 0,
            "byteLength" : 54848,
            "byteOffset" : 2060312
        },
        {
            "buffer" : 0,
            "byteLength" : 72636,
            "byteOffset" : 2115160
        },
        {
            "buffer" : 0,
            "byteLength" : 11724,
            "byteOffset" : 2187796
        },
        {
            "buffer" : 0,
            "byteLength" : 11724,
            "byteOffset" : 2199520
        },
        {
            "buffer" : 0,
            "byteLength" : 7816,
            "byteOffset" : 2211244
        },
        {
            "buffer" : 0,
            "byteLength" : 10560,
            "byteOffset" : 2219060
        },
        {
            "buffer" : 0,
            "byteLength" : 12504,
            "byteOffset" : 2229620
        },
        {
            "buffer" : 0,
            "byteLength" : 12504,
            "byteOffset" : 2242124
        },
        {
            "buffer" : 0,
            "byteLength" : 8336,
            "byteOffset" : 2254628
        },
        {
            "buffer" : 0,
            "byteLength" : 10848,
            "byteOffset" : 2262964
        },
        {
            "buffer" : 0,
            "byteLength" : 235620,
            "byteOffset" : 2273812
        },
        {
            "buffer" : 0,
            "byteLength" : 235620,
            "byteOffset" : 2509432
        },
        {
            "buffer" : 0,
            "byteLength" : 157080,
            "byteOffset" : 2745052
        },
        {
            "buffer" : 0,
            "byteLength" : 215520,
            "byteOffset" : 2902132
        },
        {
            "buffer" : 0,
            "byteLength" : 2760,
            "byteOffset" : 3117652
        },
        {
            "buffer" : 0,
            "byteLength" : 2760,
            "byteOffset" : 3120412
        },
        {
            "buffer" : 0,
            "byteLength" : 1840,
            "byteOffset" : 3123172
        },
        {
            "buffer" : 0,
            "byteLength" : 810,
            "byteOffset" : 3125012
        }
    ],
    "samplers" : [
        {
            "magFilter" : 9729,
            "minFilter" : 9987
        }
    ],
    "buffers" : [
        {
            "byteLength" : 3125824,
            "uri" : "data:application/octet-stream;base64,"
        }
    ]
}
